<svg t="1608714656008" class="icon" viewBox="0 0 1024 1024" version="1.1" xmlns="http://www.w3.org/2000/svg" p-id="3325" width="200" height="200"><path d="M512 115.119c19.218 10.217 64.745 37.477 106.702 85.567 48.541 55.63 103.251 152.933 88.237 300.545a47.945 47.945 0 0 0 18.105 42.571c10.973 8.612 31.51 27.26 45.793 55.39 13.294 26.2 17.792 54.672 13.454 84.925l-126.923-29.07a47.96 47.96 0 0 0-39.433 8.347c-26.159 19.574-64.771 30.804-105.936 30.804-41.245 0-79.865-11.191-105.962-30.7a47.943 47.943 0 0 0-39.38-8.342l-126.948 28.98c-4.34-30.258 0.159-58.738 13.456-84.944 14.277-28.13 34.816-46.778 45.79-55.39a47.948 47.948 0 0 0 18.103-42.57C302.06 353.7 356.696 256.438 405.17 200.826c41.976-48.155 87.652-75.5 106.83-85.706m-0.002-50.621c-3.132 0-6.265 0.571-9.15 1.714-0.265 0.104-0.53 0.214-0.79 0.33-2.875 1.261-71.12 31.752-133.033 102.776-55.027 63.13-116.375 172.454-99.672 336.765-27.918 21.907-105.97 96.044-69.917 217.43 1.391 4.687 4.967 8.706 9.917 11.15 3.305 1.632 7.041 2.468 10.808 2.468 1.873 0 3.751-0.206 5.591-0.624l151.574-34.6c34.366 25.69 82.681 40.242 134.672 40.242 51.915 0 100.228-14.594 134.666-40.36l151.563 34.715c1.845 0.423 3.731 0.633 5.608 0.633 3.766 0 7.499-0.839 10.801-2.47 4.957-2.443 8.533-6.462 9.925-11.152 36.051-121.386-42-195.523-69.918-217.43 16.725-164.426-44.714-273.772-99.81-336.92C592.866 98.142 524.78 67.787 521.877 66.514c-3.077-1.343-6.476-2.016-9.878-2.016zM511.997 959.502c-14.752 0-26.709-8.72-26.709-19.479V802.17c0-10.758 11.957-19.479 26.71-19.479s26.712 8.72 26.712 19.479v137.853c-0.001 10.757-11.959 19.479-26.713 19.479zM644.619 905.56c-14.751 0-26.71-8.721-26.71-19.48V784.19c0-10.759 11.959-19.48 26.71-19.48 14.752 0 26.711 8.721 26.711 19.48v101.89c0 10.758-11.96 19.48-26.711 19.48zM379.378 905.56c-14.752 0-26.711-8.721-26.711-19.48V784.19c0-10.759 11.96-19.48 26.711-19.48s26.71 8.721 26.71 19.48v101.89c0 10.758-11.96 19.48-26.71 19.48z" p-id="3326" fill="#ffffff"></path><path d="M416.099 352.668a93.714 93.714 0 1 0 191.797 0 93.714 93.714 0 1 0-191.797 0z" p-id="3327" fill="#ffffff"></path></svg>