<svg t="1609208939241" class="icon" viewBox="0 0 1024 1024" version="1.1" xmlns="http://www.w3.org/2000/svg" p-id="2845" width="200" height="200"><path d="M854.752 211c-1.688 5.064-2.816 10.184-5.064 15.128L800 335.44V768a64.48 64.48 0 0 1-30.312 54.44A64.232 64.232 0 0 1 736 832a64.68 64.68 0 0 1-26.688-5.816l-103.688-63.184-26.688 58.688 99.816 60.816A128.376 128.376 0 0 0 736 896a128.04 128.04 0 0 0 128-128V256c0-15.752-3.816-30.688-9.248-45zM288 320c-70.688 0-128 57.312-128 128v128c0 68.376 53.752 123.688 121.184 127.312L310 640H288c-35.312 0-64-28.688-64-64V448c0-35.312 28.688-64 64-64h97.752a64 64 0 0 0 33.312-9.376l16.064-9.752 47.064-103.624L385.752 320H288z" fill="#546E7A" p-id="2846"></path><path d="M704.064 128c4.44 0 8.872 0.872 13.184 2.816a32 32 0 0 1 15.872 42.376l-320.064 704.064a31.976 31.976 0 0 1-42.376 15.88 32 32 0 0 1-15.872-42.376l320.064-704.064A31.936 31.936 0 0 1 704.064 128m0-64c-37.504 0-71.816 22-87.376 56.064L296.56 824.248c-21.872 48.248-0.504 105.248 47.624 127.128A96.296 96.296 0 0 0 383.936 960c37.504 0 71.816-22.064 87.376-56.248l320.064-704.064c21.872-48.248 0.504-105.248-47.624-127.128A96.056 96.056 0 0 0 704.064 64z" fill="#F44336" p-id="2847"></path></svg>