<?xml version="1.0" standalone="no"?>
<!DOCTYPE svg PUBLIC "-//W3C//DTD SVG 1.1//EN" "http://www.w3.org/Graphics/SVG/1.1/DTD/svg11.dtd" >
<!--
2013-9-30: Created.
-->
<svg>
<metadata>
Created by iconfont
</metadata>
<defs>

<font id="iconfont" horiz-adv-x="1024" >
  <font-face
    font-family="iconfont"
    font-weight="500"
    font-stretch="normal"
    units-per-em="1024"
    ascent="896"
    descent="-128"
  />
    <missing-glyph />
    
    <glyph glyph-name="tishi" unicode="&#59030;" d="M512 896a512 512 0 1 1 512-512A512.597333 512.597333 0 0 1 512 896z m0-78.762667A433.237333 433.237333 0 1 0 78.762667 384 432.682667 432.682667 0 0 0 512 817.237333z m-39.381333-196.906666v-78.762667h78.762666V620.288z m0-157.525334v-315.093333h78.762666v315.050667z"  horiz-adv-x="1024" />

    
    <glyph glyph-name="liebiao" unicode="&#59031;" d="M0 853.333333v-267.136h267.136V853.333333z m89.045333-89.045333h89.045334v-89.045333H89.045333z m267.136 0v-89.045333H1024V764.288zM0 497.152v-267.136h267.136V497.152z m89.045333-89.045333h89.045334v-89.045334H89.045333z m267.136 0v-89.045334H1024v89.045334zM0 140.8v-267.136h267.136V140.8z m89.045333-89.045333h89.045334v-88.874667H89.045333z m267.136 0v-88.874667H1024v89.045333z"  horiz-adv-x="1024" />

    
    <glyph glyph-name="lianjie" unicode="&#59032;" d="M757.333018 896a266.453222 266.453222 0 0 1-189.311921-78.677301l-62.677308-62.677307A266.751889 266.751889 0 0 1 426.666489 565.333471a262.655891 262.655891 0 0 1 18.687992-97.322626l69.333305 69.333304a182.82659 182.82659 0 0 0 50.645312 157.311935l62.677307 62.677307A182.613257 182.613257 0 0 0 757.333018 810.666702a179.541259 179.541259 0 0 0 127.999946-53.333311 182.357257 182.357257 0 0 0 0-257.322559l-62.677307-62.677308A182.613257 182.613257 0 0 0 693.333044 384.000213a156.287935 156.287935 0 0 0-27.989321 2.645333l-69.333305-69.333305A262.655891 262.655891 0 0 1 693.333044 298.666916a266.453222 266.453222 0 0 1 189.354588 78.6773l62.677307 62.677307A266.751889 266.751889 0 0 1 1023.999573 629.333444 268.799888 268.799888 0 0 1 757.333018 896z m-105.343956-310.655871l-341.333191-341.333191 61.354641-61.354641 341.333191 341.333191zM330.666529 469.333511a266.453222 266.453222 0 0 1-189.311921-78.6773l-62.677307-62.677308A266.751889 266.751889 0 0 1 0 138.666982 268.799888 268.799888 0 0 1 266.666556-127.999573a266.453222 266.453222 0 0 1 189.354587 78.6773l62.677308 62.677307A266.751889 266.751889 0 0 1 597.333084 202.666956a262.655891 262.655891 0 0 1-18.645325 97.322626l-69.333305-69.333305a182.82659 182.82659 0 0 0-50.645312-157.354601l-62.719974-62.63464A182.613257 182.613257 0 0 0 266.666556-42.666276a179.541259 179.541259 0 0 0-127.999947 53.333312 182.357257 182.357257 0 0 0 0 257.322559l62.677307 62.677307A182.613257 182.613257 0 0 0 330.666529 384.000213a156.287935 156.287935 0 0 0 27.989322-2.687999l69.333304 69.333305A262.655891 262.655891 0 0 1 330.666529 469.333511z"  horiz-adv-x="1024" />

    
    <glyph glyph-name="qianchu" unicode="&#59033;" d="M512.053548 896a511.976321 511.976321 0 1 1 418.668636-806.618694l-69.330126 49.320386a426.646934 426.646934 0 1 0 0 490.643974l69.330126 49.320386A511.42168 511.42168 0 0 1 512.053548 896z m313.329508-310.641633l-61.309164-61.351829L861.392058 426.688372H341.394774v-85.329387h519.997284l-97.318166-97.318165 61.351829-61.351829 170.658774 170.658773 29.267979 30.675915-29.310644 30.675914z"  horiz-adv-x="1025" />

    
    <glyph glyph-name="shengxu-zheng" unicode="&#59034;" d="M42.666667 853.333333v-85.333333h85.333333V853.333333z m768-21.333333l-30.762667-29.397333L597.333333 618.666667l60.16-60.16L768 669.397333V-128h85.333333V669.397333l110.506667-110.933333L1024 618.666667l-182.570667 183.936zM42.666667 682.666667v-85.333334h170.666666V682.666667z m0-170.666667v-85.333333h256V512z m0-170.666667v-85.333333h341.333333v85.333333z m0-170.666666v-85.333334h426.666666v85.333334z m0-170.666667v-85.333333h512v85.333333z"  horiz-adv-x="1024" />

    
    <glyph glyph-name="suoding" unicode="&#59035;" d="M512 896a276.821333 276.821333 0 0 1-275.712-275.712v-118.144H118.144V-128h787.712V502.144h-118.186667V620.288A276.821333 276.821333 0 0 1 512 896z m0-78.762667a197.290667 197.290667 0 0 0 196.906667-196.906666V502.186667H315.050667V620.288A197.290667 197.290667 0 0 0 512 817.237333z m-315.093333-393.856h630.144v-472.618666H196.906667z"  horiz-adv-x="1024" />

    
    <glyph glyph-name="zhongshi" unicode="&#59036;" d="M512 896a512 512 0 1 1 512-512h-78.762667a433.28 433.28 0 1 0-70.144 236.288h-205.568v-78.762667h315.093334V856.618667h-78.762667v-146.474667A510.848 510.848 0 0 1 512 896z"  horiz-adv-x="1024" />

    
    <glyph glyph-name="shoucang" unicode="&#59037;" d="M274.304 810.666667A275.456 275.456 0 0 1 0 536.362667a237.568 237.568 0 0 1 45.696-130.304 338.304 338.304 0 0 1 44.586667-53.717334l395.434666-396.586666 26.282667-26.282667 26.282667 26.282667 395.434666 396.586666A279.424 279.424 0 0 1 1024 536.362667 275.456 275.456 0 0 1 749.696 810.666667 333.482667 333.482667 0 0 1 512 703.232 333.482667 333.482667 0 0 1 274.304 810.666667z m0-73.130667c109.269333 0 210.304-106.282667 210.304-106.282667l27.392-30.890666 27.434667 30.848s100.992 106.282667 210.304 106.282666a201.813333 201.813333 0 0 0 201.130666-201.130666c0-56.448-68.565333-132.565333-68.565333-132.565334L512 33.536l-370.304 370.261333a289.024 289.024 0 0 0-35.413333 43.434667 177.792 177.792 0 0 0-33.152 89.130667 201.813333 201.813333 0 0 0 201.173333 201.173333z"  horiz-adv-x="1024" />

    
    <glyph glyph-name="fuzhi" unicode="&#59038;" d="M0 896v-853.333333h298.666667v85.333333H85.333333V810.666667h512v-42.666667h85.333334V896z m341.333333-170.666667v-853.333333h682.666667V725.333333z m85.333334-85.333333h512v-682.666667H426.666667z"  horiz-adv-x="1024" />

    
    <glyph glyph-name="jiesuo" unicode="&#59039;" d="M521.856 896a282.368 282.368 0 0 1-260.949333-182.144l72.533333-29.525333a205.269333 205.269333 0 0 0 188.288 132.906666 197.290667 197.290667 0 0 0 196.906667-196.906666V502.186667H128V-128h787.712V502.144h-118.186667V620.288A276.821333 276.821333 0 0 1 521.856 896zM206.762667 423.381333h630.144v-472.618666H206.762667z"  horiz-adv-x="1024" />

    
    <glyph glyph-name="zhuanfa2" unicode="&#59040;" d="M605.098667 896v-93.098667h258.901333l-571.733333-571.733333 66.901333-66.901333 571.733333 571.733333v-258.901333H1024V896zM0 709.802667V-128h837.802667V477.098667L744.746667 384v-418.901333H93.098667V616.746667H512l93.098667 93.098666z"  horiz-adv-x="1024" />

    
    <glyph glyph-name="baocun" unicode="&#59041;" d="M42.666667 853.333333v-938.666666h938.666666V657.322667l-11.989333 13.312-170.666667 170.666666L785.322667 853.333333z m85.333333-85.333333h128v-256h512V749.312l128-128V0h-85.333333v384H213.333333v-384H128z m213.333333 0h170.666667v-85.333333h85.333333V768h85.333334v-170.666667H341.333333zM298.666667 298.666667h426.666666v-298.666667H298.666667z"  horiz-adv-x="1024" />

    
    <glyph glyph-name="jinggao" unicode="&#59042;" d="M512 896a512 512 0 1 1 512-512A512.554667 512.554667 0 0 1 512 896z m0-85.333333A426.666667 426.666667 0 1 0 85.333333 384 425.984 425.984 0 0 0 512 810.666667z m-42.666667-170.666667v-341.333333h85.333334V640z m0-426.666667v-85.333333h85.333334v85.333333z"  horiz-adv-x="1024" />

    
    <glyph glyph-name="shijian" unicode="&#59043;" d="M512 896a512 512 0 1 1 512-512A512.554667 512.554667 0 0 1 512 896z m0-85.333333A426.666667 426.666667 0 1 0 85.333333 384 425.984 425.984 0 0 0 512 810.666667z m-42.666667-85.333334v-384h298.666667v85.333334h-213.333333V725.333333z"  horiz-adv-x="1024" />

    
    <glyph glyph-name="bianji" unicode="&#59044;" d="M400.768 896a272.853333 272.853333 0 0 1-152.192-499.2 390.741333 390.741333 0 0 1-237.44-357.973333h77.909333a309.973333 309.973333 0 0 0 525.994667 224.042666l-183.850667-183.850666-2.432-12.16-26.794666-137.6L389.802667-128l57.216 12.16 137.6 26.794667 12.16 2.432 393.301333 393.301333a117.12 117.12 0 0 1-164.394667 166.826667l-154.624-154.624a393.642667 393.642667 0 0 1-118.058666 77.909333A272.853333 272.853333 0 0 1 400.768 896z m0-77.909333a194.816 194.816 0 1 0-194.816-194.816 194.218667 194.218667 0 0 0 194.816 194.816z m506.368-389.632a39.125333 39.125333 0 0 0 27.989333-10.965334 38.058667 38.058667 0 0 0 0-54.784l-377.472-377.472-69.418666-14.592 14.592 69.418667 377.472 377.472a36.437333 36.437333 0 0 0 26.837333 10.922667z"  horiz-adv-x="1024" />

    
    <glyph glyph-name="cai" unicode="&#59045;" d="M262.784 896a128.682667 128.682667 0 0 1-125.312-101.333333l-91.989333-426.666667A128.938667 128.938667 0 0 1 170.794667 213.333333h245.333333l-7.978667-32a97.450667 97.450667 0 0 1-26.666666-26.666666 212.096 212.096 0 0 1-40.021334-126.677334A119.850667 119.850667 0 0 1 465.450667-85.333333h17.322666l13.354667 11.989333L785.450667 213.333333h196.010666V896z m0-85.333333h462.677333v-537.344l-273.322666-269.354667c-18.005333 3.498667-25.344 10.837333-25.344 23.978667a125.397333 125.397333 0 0 0 22.656 77.312 60.629333 60.629333 0 0 0 18.688 18.645333l14.677333 7.978667 5.333333 17.322666 25.344 96 13.312 53.461334H170.794667a41.813333 41.813333 0 0 0-41.344 52.010666l90.666666 426.666667a42.965333 42.965333 0 0 0 42.666667 33.322667z m548.010667 0h85.333333v-512h-85.333333z"  horiz-adv-x="1024" />

    
    <glyph glyph-name="fabu2" unicode="&#59046;" d="M12.885333 447.744l63.616-38.058667 294.912-181.333333 191.232-288.554667 40.192-62.293333 27.733334 68.48 339.370666 849.962667 35.072 88.234666-86.954666-38.058666L80.384 477.781333z m165.973334-11.776l591.189333 260.181333-377.813333-390.869333z m268.629333-184.32l378.026667 391.082667-240.085334-599.722667z"  horiz-adv-x="1024" />

    
    <glyph glyph-name="yishoucang" unicode="&#59047;" d="M749.696 810.666667A377.941333 377.941333 0 0 1 512 706.304 377.941333 377.941333 0 0 1 274.304 810.666667 274.56 274.56 0 0 1 0 536.362667c0-94.72 86.485333-180.906667 89.984-184.362667L512-70.016l421.802667 421.802667C937.514667 355.456 1024 441.642667 1024 536.362667A274.56 274.56 0 0 1 749.696 810.666667z"  horiz-adv-x="1024" />

    
    <glyph glyph-name="shenhe" unicode="&#59048;" d="M512 896a232.490667 232.490667 0 0 1-232.234667-232.234667 285.44 285.44 0 0 1 64.768-171.093333 187.733333 187.733333 0 0 0 50.090667-109.994667v-124.672l-321.408-70.912-30.549333-6.101333v-188.202667h39.125333v-39.125333a76.8 76.8 0 0 1 25.6-57.429333 85.333333 85.333333 0 0 1 56.234667-20.778667h696.704a85.333333 85.333333 0 0 1 56.234666 20.778667 76.8 76.8 0 0 1 25.6 57.429333v39.125333H981.333333v188.202667l-30.549333 6.101333-321.450667 70.912v124.629334a187.733333 187.733333 0 0 0 50.090667 109.994666 285.44 285.44 0 0 1 64.768 171.093334A232.490667 232.490667 0 0 1 512 896z m0-78.250667a152.96 152.96 0 0 0 153.984-153.984 201.941333 201.941333 0 0 0-50.090667-125.909333 259.584 259.584 0 0 1-64.768-155.221333v-116.096h-78.250666v116.096a259.541333 259.541333 0 0 1-64.768 155.221333 201.941333 201.941333 0 0 0-50.090667 125.909333A152.96 152.96 0 0 0 512 817.749333z m-78.208-629.418666h156.458667l312.874666-69.674667v-47.658667H120.874667v47.658667zM160-7.253333h704v-37.888a4.650667 4.650667 0 0 0-3.669333-1.237334H163.669333a4.650667 4.650667 0 0 0-3.669333 1.237334z"  horiz-adv-x="1024" />

    
    <glyph glyph-name="qianru" unicode="&#59049;" d="M511.999787 895.999573A511.999787 511.999787 0 0 1 17.322659 511.999733h88.021297a426.666489 426.666489 0 1 0 0-255.999893H17.322659A511.530454 511.530454 0 1 1 511.999787 895.999573z m-27.989322-310.65587L422.698491 523.989062 520.021117 426.666436H0v-85.333298h520.021117l-97.322626-97.322626 61.354641-61.354641 170.666595 170.666595 29.269321 30.677321-29.311987 30.67732z"  horiz-adv-x="1024" />

    
    <glyph glyph-name="guanbi" unicode="&#59050;" d="M512 896a512 512 0 1 1 512-512A512.597333 512.597333 0 0 1 512 896z m0-78.762667A433.237333 433.237333 0 1 0 78.762667 384 432.682667 432.682667 0 0 0 512 817.237333zM363.093333 589.525333L306.474667 532.906667l148.906666-148.906667-148.906666-148.906667 56.618666-56.618666 148.906667 148.906666 148.906667-148.906666 56.618666 56.618666-148.906666 148.906667 148.906666 148.906667-56.618666 56.618666-148.906667-148.906666z"  horiz-adv-x="1024" />

    
    <glyph glyph-name="biaoyin" unicode="&#59051;" d="M665.344 896l-27.690667-37.717333-197.461333-269.141334A338.218667 338.218667 0 0 1 140.8 496.085333l-28.928-27.690666 213.888-213.973334L0-71.168v-56.618667h56.618667l325.76 325.76 213.802666-213.802666 27.690667 28.928a338.218667 338.218667 0 0 1 92.928 299.349333l269.141333 197.461333 37.717334 27.690667z m10.069333-123.264l225.152-225.152-250.282666-183.466667-22.656-16.341333 7.552-26.410667a257.962667 257.962667 0 0 0-47.786667-215.082666l-353.450667 353.322666a257.962667 257.962667 0 0 0 215.082667 47.786667l26.410667-7.552 16.341333 22.656z"  horiz-adv-x="1024" />

    
    <glyph glyph-name="pinglun" unicode="&#59052;" d="M0 810.666667v-787.712h377.557333L512-111.488l134.442667 134.442667H1024V810.666667z m78.762667-78.762667h866.474666v-630.144h-331.392L512 0l-101.845333 101.845333H78.762667z m157.525333-118.144v-78.762667h551.424V613.76z m0-157.525333v-78.762667h551.424v78.72z m0-157.525334v-78.762666h393.856V298.666667z"  horiz-adv-x="1024" />

    
    <glyph glyph-name="zhuanfa1" unicode="&#59053;" d="M754.218667 853.376L696.32 795.434667l170.666667-169.898667h-395.946667a225.28 225.28 0 0 1 0-450.56h20.48v81.92h-20.48a143.36 143.36 0 0 0 0 286.72h396.16l-170.666667-170.666667 57.941334-57.941333L1024 584.576zM0 830.336v-901.248h901.12v409.6l-81.92-81.92v-245.76H81.92V748.288h444.544l81.92 81.92z"  horiz-adv-x="1024" />

    
    <glyph glyph-name="dianzan" unicode="&#59054;" d="M541.313617 895.922353l-13.310991-11.988425L238.659235 597.278333H42.663431v-682.614902h718.622838a128.672909 128.672909 0 0 1 125.345161 101.32565l91.982358 426.634313A128.92889 128.92889 0 0 1 853.268627 597.278333h-245.31473l8.020725 31.997574a97.443277 97.443277 0 0 1 26.664645 26.664644A212.079917 212.079917 0 0 1 682.614902 782.608279 119.841579 119.841579 0 0 1 558.63497 895.922353z m30.675007-89.337226c18.003968-3.498401 25.342078-10.836512 25.342078-24.019512a125.387825 125.387825 0 0 0-22.654282-77.348801 60.624736 60.624736 0 0 0-18.643919-18.686583l-14.676221-8.020725-5.332928-17.321353-25.342079-95.99272L497.284956 511.95147H853.268627a41.810163 41.810163 0 0 0 41.340865-52.006722l-90.659792-426.634314a42.962075 42.962075 0 0 0-42.663431-33.32014H298.644019V537.293549zM127.990294 511.95147h85.326863v-511.961176H127.990294z"  horiz-adv-x="1024" />

    
    <glyph glyph-name="daoru" unicode="&#59055;" d="M85.333333 896v-1024h853.333334v384h-85.333334v-298.666667H170.666667V810.666667h682.666666v-298.666667h85.333334V896z m490.666667-298.666667l-183.978667-182.656L362.666667 384l29.354666-30.677333L576 170.666667l59.989333 59.989333L525.354667 341.333333H1024v85.333334H525.354667l110.677333 110.677333z"  horiz-adv-x="1024" />

    
    <glyph glyph-name="shangchuan" unicode="&#59056;" d="M454.613333 725.333333v-490.666666h85.333334V725.333333l170.666666-170.666666 64 64-277.333333 277.333333-277.333333-277.333333 64-64z m170.666667-256v-85.333333h213.333333v-426.666667h-682.666666V384h213.333333v85.333333h-298.666667v-597.333333h853.333334V469.333333z"  horiz-adv-x="1024" />

    
    <glyph glyph-name="shanchu1" unicode="&#59057;" d="M426.661689 895.988053a86.825654 86.825654 0 0 1-61.311285-23.978386A86.825654 86.825654 0 0 1 341.329351 810.655716v-42.666169H85.332338v-85.332338h42.666169v-682.658702a128.681165 128.681165 0 0 1 127.998506-127.998507h511.994027a128.681165 128.681165 0 0 1 127.998507 127.998507V682.657209h42.666169V767.989547h-255.997014V810.655716a86.825654 86.825654 0 0 1-23.978387 61.353951A86.825654 86.825654 0 0 1 597.326365 895.988053z m0-85.332337h170.664676v-42.666169h-170.664676zM213.330844 682.657209h597.326365v-682.658702a42.666169 42.666169 0 0 0-42.666169-42.666169H255.997013a42.666169 42.666169 0 0 0-42.666169 42.666169z m85.332338-127.998507v-469.327858h85.332338V554.658702z m170.664676 0v-469.327858h85.332338V554.658702z m170.664675 0v-469.327858h85.332338V554.658702z"  horiz-adv-x="1024" />

    
    <glyph glyph-name="suolvetu" unicode="&#59058;" d="M731.434667-121.898667V170.666667H1024v-292.565334z m73.130666 73.130667h146.304v146.304h-146.304zM365.738667-121.898667V170.666667h292.565333v-292.565334z m73.130666 73.130667h146.304v146.304h-146.304zM0-121.898667V170.666667h292.565333v-292.565334z m73.173333 73.130667h146.261334v146.304H73.173333z m658.304 268.202667V512H1024v-292.565333z m73.130667 73.130666h146.304v146.304h-146.304zM365.781333 219.434667V512h292.565334v-292.565333z m73.130667 73.130666h146.304v146.304h-146.304zM0 219.434667V512h292.565333v-292.565333z m73.173333 73.130666h146.261334v146.304H73.173333z m658.304 268.202667V853.333333H1024v-292.608z m73.130667 73.173333h146.304V780.245333h-146.304zM365.781333 560.768V853.333333h292.565334v-292.608z m73.130667 73.173333h146.304V780.245333h-146.304zM0 560.725333V853.333333h292.565333v-292.608z m73.173333 73.173334h146.261334V780.202667H73.173333z"  horiz-adv-x="1024" />

    
    <glyph glyph-name="shaixuan" unicode="&#59059;" d="M42.666667 896v-100.010667l9.344-11.989333L384 369.322667V-128l68.010667 50.645333 170.666666 128L640 64v305.322667l331.989333 414.677333 9.344 11.989333V896z m97.322666-85.333333h744.021334l-306.645334-384h-130.688zM469.333333 341.333333h85.333334v-234.666666L469.333333 42.666667z"  horiz-adv-x="1024" />

    
    <glyph glyph-name="kaiguan-kai" unicode="&#59060;" d="M288 682.666667a288 288 0 0 1 0-576h448a288 288 0 0 1 0 576z m448-64A224 224 0 1 0 512 394.666667a223.488 223.488 0 0 0 224 224z"  horiz-adv-x="1024" />

    
    <glyph glyph-name="jiangxu-zheng" unicode="&#59061;" d="M42.666667 853.333333v-85.333333h85.333333V853.333333z m725.333333 0v-797.354666l-110.677333 110.677333L597.333333 106.666667l182.656-184.021334 30.677334-29.312 30.677333 29.312L1024 106.666667l-59.989333 59.989333L853.333333 55.978667V853.333333zM42.666667 682.666667v-85.333334h170.666666V682.666667z m0-170.666667v-85.333333h256V512z m0-170.666667v-85.333333h341.333333v85.333333z m0-170.666666v-85.333334h426.666666v85.333334z m0-170.666667v-85.333333h512v85.333333z"  horiz-adv-x="1024" />

    
    <glyph glyph-name="youyi" unicode="&#59062;" d="M512 896a512 512 0 1 1 512-512A512.597333 512.597333 0 0 1 512 896z m0-78.762667A433.237333 433.237333 0 1 0 78.762667 384 432.682667 432.682667 0 0 0 512 817.237333z m118.144-275.712v-118.144H236.288v-78.762666h393.856v-118.144L787.712 384z"  horiz-adv-x="1024" />

    
    <glyph glyph-name="jinyong" unicode="&#59063;" d="M512 896a512 512 0 1 1 512-512A512.597333 512.597333 0 0 1 512 896z m0-78.762667a433.024 433.024 0 0 0 329.856-713.856L237.525333 720A431.274667 431.274667 0 0 0 512 817.237333zM182.144 664.618667l604.330667-616.618667A433.450667 433.450667 0 0 0 182.144 664.618667z"  horiz-adv-x="1024" />

    
    <glyph glyph-name="fabu" unicode="&#59064;" d="M947.968 853.077333a117.12 117.12 0 0 1-36.778667-8.789333c-11.221333-4.266667-64.597333-26.922667-145.706666-60.928l-290.858667-122.282667-413.866667-174.293333 2.474667 0.938667a126.293333 126.293333 0 0 1-28.928-14.762667 79.957333 79.957333 0 0 1-23.082667-22.314667 65.578667 65.578667 0 0 1-10.922666-43.690666 79.274667 79.274667 0 0 1 35.242666-54.912 116.906667 116.906667 0 0 1 26.154667-13.994667h0.298667l192.298666-64.768c8.533333-27.690667 58.624-192 70.613334-229.845333a140.8 140.8 0 0 1 22.613333-47.530667 55.466667 55.466667 0 0 1 14.933333-13.866667 44.074667 44.074667 0 0 1 7.210667-3.370666 6.613333 6.613333 0 0 1 2.474667-0.768l-2.005334 0.469333a14.293333 14.293333 0 0 0 1.536-0.768 30.506667 30.506667 0 0 1 4.608-0.938667 65.152 65.152 0 0 1 54.912 9.685334l1.365334 1.066666 113.578666 103.381334 190.293334-146.005334 4.266666-1.834666a101.077333 101.077333 0 0 1 101.077334 9.386666 102.997333 102.997333 0 0 1 29.866666 39.210667l1.365334 3.541333 147.114666 753.408a108.288 108.288 0 0 1 0.597334 52.906667 71.168 71.168 0 0 1-30.762667 41.216 73.728 73.728 0 0 1-41.984 10.453333z m-4.010667-80.768a22.912 22.912 0 0 0-0.768-6.912v-0.469333l-145.664-745.344a16.725333 16.725333 0 0 0-4.608-5.674667c-3.072-2.474667-5.546667-4.010667-18.304 1.066667L541.866667 193.408l-140.8-128 29.525333 188.629333 380.288 354.474667c15.701333 14.634667 10.453333 17.706667 10.453333 17.706667 1.28 17.792-23.466667 4.992-23.466666 4.992L318.293333 334.165333v0.768l-229.973333 77.397334h-0.597333a10.581333 10.581333 0 0 1 1.237333 0.469333l1.237333 0.597333 1.237334 0.469334 413.866666 174.293333 290.602667 122.453333c80.896 34.133333 140.8 58.922667 144.170667 60.288s1.621333 1.578667 3.925333 1.578667z"  horiz-adv-x="1024" />

    
    <glyph glyph-name="guanlian" unicode="&#59065;" d="M743.125333 896a228.992 228.992 0 0 1-162.645333-68.010667L180.48 427.989333A325.248 325.248 0 0 1 640.469333-32l266.666667 266.666667-59.989333 59.989333-266.666667-266.666667a240.426667 240.426667 0 0 0-340.010667 340.010667L640.469333 768a146.133333 146.133333 0 0 0 206.677334-206.677333l-400-400A51.882667 51.882667 0 0 0 373.802667 234.666667l366.677333 366.677333L680.448 661.333333l-366.677333-366.677333a136.704 136.704 0 0 1 193.322666-193.322667L907.093333 501.333333A231.338667 231.338667 0 0 1 743.125333 896z"  horiz-adv-x="1024" />

    
    <glyph glyph-name="bianji2" unicode="&#59066;" d="M0 896v-1024h1024V896z m93.098667-93.098667h837.802666v-837.802666H93.098667zM704 715.562667a139.690667 139.690667 0 0 1-98.901333-40.746667L220.458667 290.133333l-1.450667-14.549333-21.802667-154.282667-10.197333-62.549333 62.549333 10.197333 154.197334 21.802667 14.549333 1.450667 384.810667 384.725333A139.733333 139.733333 0 0 1 704 715.562667z m0-93.098667a46.933333 46.933333 0 0 0 33.450667-13.098667 45.482667 45.482667 0 0 0 1.450666-64l-1.450666-1.450666-362.922667-364.373334-77.098667-10.197333 10.197334 77.098667 364.373333 362.922666a43.605333 43.605333 0 0 0 32 13.098667z"  horiz-adv-x="1024" />

    
    <glyph glyph-name="yichu" unicode="&#59067;" d="M85.333333 896v-1024h853.333334v341.333333l-85.333334-85.333333v-170.666667H170.666667V810.666667h682.666666v-170.666667l85.333334-85.333333V896z m699.989334-298.666667L725.333333 537.344 834.688 426.666667H422.656v-85.333334h411.989333L725.333333 230.656 785.322667 170.666667l184.021333 182.656 29.312 30.677333-29.312 30.677333z"  horiz-adv-x="1024" />

    
    <glyph glyph-name="fenxiang" unicode="&#59068;" d="M783.821811 347.297953a231.547755 231.547755 0 0 1-172.583502-77.225251l-240.976916 130.429609A234.662365 234.662365 0 0 1 376.61861 522.697404l297.210551 125.65103a148.477278 148.477278 0 1 1-36.223336 76.798592L335.787358 597.533365a190.887167 190.887167 0 1 1-16.725026-265.680462l247.760791-134.098875a232.443739 232.443739 0 1 1 216.998688 149.586591z m0 463.863496a63.614834 63.614834 0 1 0-63.44417-63.614834 63.614834 63.614834 0 0 0 63.44417 63.572168zM85.765276 473.247644a105.726062 105.726062 0 1 0 211.494789 0v-0.426659a105.768728 105.768728 0 1 0-211.494789 0.255995z m698.056535-507.724025a148.434612 148.434612 0 1 0 148.050619 148.434612 148.434612 148.434612 0 0 0-148.050619-148.178617z"  horiz-adv-x="1025" />

    
    <glyph glyph-name="shangyi" unicode="&#59069;" d="M512 896a512 512 0 1 1 512-512A512.597333 512.597333 0 0 1 512 896z m0-78.762667A433.237333 433.237333 0 1 0 78.762667 384 432.682667 432.682667 0 0 0 512 817.237333z m0-157.525333L354.474667 502.186667h118.144v-393.856h78.762666v393.813333h118.144z"  horiz-adv-x="1024" />

    
    <glyph glyph-name="biaoqian" unicode="&#59070;" d="M463.673741 853.496264l-12.071061-10.880956-425.037356-425.037357-26.564835-27.754939 26.564835-27.75494 347.680557-347.680557 27.75494-26.564835 27.754939 26.564835 425.037357 425.037356 10.880956 12.071061V853.496264z m32.600366-77.271791h292.128175v-292.128175L402.128332 97.779844l-292.170679 292.128175z m408.035862-38.635896v-77.229288h38.635896v-315.080192l-366.977254-364.597045-48.284244 48.24174-54.319774-54.319774 74.849079-76.039183 27.754939-26.564835 26.564835 26.564835 406.845758 402.000332 10.880956 12.071061v425.037357z m-231.772871-38.635896a38.635896 38.635896 0 1 1 38.635896-38.635895 38.720903 38.720903 0 0 1-38.635896 38.635895z"  horiz-adv-x="1024" />

    
    <glyph glyph-name="shengxu-dao" unicode="&#59071;" d="M42.666667 853.333333v-85.333333h512V853.333333z m768-21.333333l-30.762667-29.397333L597.333333 618.666667l60.16-60.16L768 669.397333V-128h85.333333V669.397333l110.506667-110.933333L1024 618.666667l-182.570667 183.936zM42.666667 682.666667v-85.333334h426.666666V682.666667z m0-170.666667v-85.333333h341.333333V512z m0-170.666667v-85.333333h256v85.333333z m0-170.666666v-85.333334h170.666666v85.333334z m0-170.666667v-85.333333h85.333333v85.333333z"  horiz-adv-x="1024" />

    
    <glyph glyph-name="shuaxin" unicode="&#59072;" d="M517.308761 895.999147A507.709217 507.709217 0 0 1 42.66464 570.681266l78.673596-31.99848A423.019907 423.019907 0 0 0 855.980674 640.011306h-168.013352v-85.32928h298.65248V853.334507h-85.32928v-132.004397a509.330473 509.330473 0 0 1-383.981761 174.669037z m395.970525-666.635002A422.379937 422.379937 0 0 0 517.308761-42.622935a427.3717 427.3717 0 0 0-339.994517 170.65856h169.335957v85.32928h-298.652481v-298.652481h85.32928v132.004397a509.11715 509.11715 0 0 1 858.625882 150.648844z"  horiz-adv-x="1024" />

    
    <glyph glyph-name="shouye" unicode="&#59073;" d="M512 853.333333l-26.837333-25.6L0 342.528l53.632-53.632 47.829333 47.914667v-431.658667h335.872v373.205333h149.333334v-373.205333h335.744V336.810667l47.829333-47.829334 53.632 53.632L538.837333 827.477333z m0-106.112l335.872-335.872v-431.573333h-186.581333v373.248h-298.666667v-373.205333H176.128V411.306667z"  horiz-adv-x="1024" />

    
    <glyph glyph-name="xiangji" unicode="&#59074;" d="M334.762667 768l-12.288-16-46.933334-62.762667H0v-708.949333h1024V689.237333h-275.712l-46.933333 62.762667L689.237333 768z m39.381333-78.762667h275.712l46.933333-62.762666 12.288-16h236.288v-551.381334H78.762667V610.474667h236.288l12.288 16zM196.906667 571.093333a39.381333 39.381333 0 1 1 39.381333-39.381333 39.466667 39.466667 0 0 1-39.381333 39.381333z m315.093333 0a236.288 236.288 0 1 1 236.288-236.288A236.970667 236.970667 0 0 1 512 571.093333z m0-78.762666a157.525333 157.525333 0 1 0-157.525333-157.525334A156.842667 156.842667 0 0 0 512 492.288z"  horiz-adv-x="1024" />

    
    <glyph glyph-name="zuoyi" unicode="&#59075;" d="M512 896a512 512 0 1 1 512-512A512.597333 512.597333 0 0 1 512 896z m0-78.762667A433.237333 433.237333 0 1 0 78.762667 384 432.682667 432.682667 0 0 0 512 817.237333zM393.856 541.525333L236.288 384l157.525333-157.525333v118.144h393.856v78.762666h-393.813333z"  horiz-adv-x="1024" />

    
    <glyph glyph-name="bangzhu" unicode="&#59076;" d="M512 896a512 512 0 1 1 512-512A512.554667 512.554667 0 0 1 512 896z m0-85.333333A426.666667 426.666667 0 1 0 85.333333 384 425.984 425.984 0 0 0 512 810.666667z m0-170.666667a171.221333 171.221333 0 0 1-170.666667-170.666667h85.333334a85.333333 85.333333 0 0 0 170.666666 0 75.989333 75.989333 0 0 0-52.010666-72.021333l-17.322667-5.333333A86.229333 86.229333 0 0 1 469.333333 310.656V256h85.333334v54.656l17.322666 5.333333A162.432 162.432 0 0 1 682.666667 469.333333a171.221333 171.221333 0 0 1-170.666667 170.666667z m-42.666667-426.666667v-85.333333h85.333334v85.333333z"  horiz-adv-x="1024" />

    
    <glyph glyph-name="xiaoxi" unicode="&#59077;" d="M520.264424 896a78.479917 78.479917 0 0 1-78.522453-78.522453 68.653976 68.653976 0 0 1 1.23356-9.825941 314.983081 314.983081 0 0 1-236.80092-304.30641v-353.393576a38.580642 38.580642 0 0 0-39.261227-39.261227H127.609621v-78.522453h282.229945a115.869536 115.869536 0 0 1-7.358822-39.261227 117.78368 117.78368 0 1 1 235.567361 0 115.826999 115.826999 0 0 1-7.358822 39.261227h282.229945v78.522453h-39.261227a38.580642 38.580642 0 0 0-39.261226 39.261227V492.328233a325.489606 325.489606 0 0 1-236.80092 315.323373 68.696513 68.696513 0 0 1 1.233559 9.825941A78.479917 78.479917 0 0 1 520.264424 896z m-17.014616-157.044907c5.65736 0.467902 11.357256 0 17.014616 0h7.188676a242.756035 242.756035 0 0 0 228.208538-246.711934v-342.334076a115.826999 115.826999 0 0 1 7.358822-39.261227H277.295706a115.826999 115.826999 0 0 1 7.358822 39.261227V503.345196a235.780043 235.780043 0 0 0 218.425134 235.609897z m17.014616-706.744617a39.261227 39.261227 0 1 0-39.261226-39.261227 38.750788 38.750788 0 0 0 39.261226 39.218691z"  horiz-adv-x="1024" />

    
    <glyph glyph-name="xiayi" unicode="&#59078;" d="M512 896a512 512 0 1 1 512-512A512.597333 512.597333 0 0 1 512 896z m0-78.762667A433.237333 433.237333 0 1 0 78.762667 384 432.682667 432.682667 0 0 0 512 817.237333z m-39.381333-157.525333v-393.856H354.474667L512 108.288l157.525333 157.525333h-118.144V659.712z"  horiz-adv-x="1024" />

    
    <glyph glyph-name="bianji1" unicode="&#59079;" d="M921.6-25.6H102.4V793.6H512V896H0v-1024h1024V332.8h-102.4z m-640 179.2h246.442667L1024 652.8 777.557333 896 281.6 396.8zM384 354.645333l394.24 396.8 100.693333-99.413333L485.461333 256H384z"  horiz-adv-x="1024" />

    
    <glyph glyph-name="rili" unicode="&#59080;" d="M213.333333 853.333333v-42.666666H42.666667v-938.666667h938.666666V810.666667h-170.666666V853.333333h-85.333334v-42.666666H298.666667V853.333333zM128 725.333333h85.333333v-42.666666h85.333334V725.333333h426.666666v-42.666666h85.333334V725.333333h85.333333v-85.333333H128z m0-170.666666h768v-597.333334H128z m170.666667-256v-85.333334h426.666666v85.333334z"  horiz-adv-x="1024" />

    
    <glyph glyph-name="shezhi" unicode="&#59081;" d="M387.620881 896l-6.143232-31.996-23.378411-116.892056A391.375078 391.375078 0 0 1 255.968004 686.959463l-114.460359 39.205766-30.758822 9.854769-15.998-28.284465L15.998 572.328459 0 544.043995l23.378411-20.904054 88.607591-77.515644A384.378619 384.378619 0 0 1 104.776236 384.063992a384.378619 384.378619 0 0 1 7.380411-61.517644L23.378411 244.988043 0 224.08399l15.998-28.284465 78.752823-135.364413 15.998-28.284464 30.758822 9.854768L255.968004 81.168521a391.417739 391.417739 0 0 1 102.131234-60.280465l23.378411-116.892056 6.143232-31.996h221.497646l6.143232 31.996 23.378411 116.892056a391.417739 391.417739 0 0 1 102.173895 60.280465l114.460359-39.376412 30.758822-9.854768 15.998 28.284465 78.752823 135.364412 15.998 28.284465-23.378411 20.904053-88.607591 77.515644A384.378619 384.378619 0 0 1 892.176478 384.063992a384.378619 384.378619 0 0 1-7.380411 61.517644l88.607591 77.515644 23.378411 20.904053-15.998 28.284465-78.752823 135.449735-15.998 28.284465-30.758822-9.854769-114.460359-39.205766a391.375078 391.375078 0 0 1-102.131234 60.152481L615.30442 864.004 609.161188 896z m63.992001-78.752823h93.513644l19.709536-102.131233 4.906054-23.378411 22.141232-7.380411a315.693872 315.693872 0 0 0 119.451735-68.898054l17.064534-15.998001 22.141232 7.380411 99.699538 34.470358 46.927467-79.990001-78.838145-70.177895-18.472358-14.760821 6.143232-23.378411a325.292672 325.292672 0 0 0 0-137.83877l-4.906053-23.378411 17.064533-14.760822 78.752823-70.135233-46.927467-79.990001-99.699538 34.470358-22.141232 7.38041-17.064534-15.998a315.693872 315.693872 0 0 0-119.451735-68.898054l-22.141232-7.380411-4.906054-23.378411-19.709536-102.131234h-93.257676l-19.709537 102.131234-4.906053 23.378411-22.141232 7.380411a315.693872 315.693872 0 0 0-119.451736 68.898054l-17.064533 15.998-22.141232-7.38041-99.699538-34.470358-46.927467 79.990001 78.838145 70.092572 18.472357 14.760821-6.143232 23.378411a325.292672 325.292672 0 0 0 0 137.83877l6.143232 23.378411-18.472357 14.760822-78.752823 70.177894 46.927468 79.990002 99.699537-34.470358 22.141233-7.380411 17.064533 15.998a315.693872 315.693872 0 0 0 119.451735 68.898055l22.141233 7.38041 4.906053 23.378412z m46.927467-236.258467A196.882056 196.882056 0 1 1 695.294422 384.063992a197.479315 197.479315 0 0 1-196.924718 196.882056z m0-78.752823A118.129234 118.129234 0 1 0 380.24047 384.063992a117.574637 117.574637 0 0 0 118.129234 118.129234z"  horiz-adv-x="1024" />

    
    <glyph glyph-name="APP" unicode="&#58997;" d="M298.666667 896a128.682667 128.682667 0 0 1-128-128v-768a128.682667 128.682667 0 0 1 128-128h426.666666a128.682667 128.682667 0 0 1 128 128V768a128.682667 128.682667 0 0 1-128 128z m0-85.333333h426.666666a42.666667 42.666667 0 0 0 42.666667-42.666667v-768a42.666667 42.666667 0 0 0-42.666667-42.666667H298.666667a42.666667 42.666667 0 0 0-42.666667 42.666667V768a42.666667 42.666667 0 0 0 42.666667 42.666667z m213.333333-725.333334a42.666667 42.666667 0 1 1 42.666667-42.666666 42.666667 42.666667 0 0 1-42.666667 42.666666z"  horiz-adv-x="1024" />

    
    <glyph glyph-name="zhihui" unicode="&#58998;" d="M539.221333 384.853333a168.362667 168.362667 0 0 1-25.6 2.176 162.133333 162.133333 0 0 1-141.482666-74.24 156.885333 156.885333 0 0 1 60.586666-215.978666 162.133333 162.133333 0 0 1 80.725334-17.322667 164.906667 164.906667 0 0 1 141.354666 77.781333 145.450667 145.450667 0 0 1-13.610666 169.344l54.016 200.021334z m44.458667-192.213333a78.464 78.464 0 0 0-69.930667-35.328 79.616 79.616 0 0 0-40.362666 6.912 76.288 76.288 0 0 0-29.568 106.197333 82.56 82.56 0 0 0 110.293333 28.458667 76.288 76.288 0 0 0 29.568-106.24zM513.578667 740.522667A488.32 488.32 0 0 1 29.013333 254.506667a443.178667 443.178667 0 0 1 78.933334-252.757334h203.733333v77.781334H150.144a361.770667 361.770667 0 0 0-40.362667 174.933333 403.84 403.84 0 1 0 807.594667 0 361.813333 361.813333 0 0 0-40.362667-174.933333h-161.536v-77.781334h201.898667a444.544 444.544 0 0 1 80.768 252.757334A488.32 488.32 0 0 1 513.578667 740.522667z"  horiz-adv-x="1024" />

    
    <glyph glyph-name="shuju" unicode="&#58999;" d="M78.762667 738.474667v-630.144H0v-78.762667h1024v78.762667h-78.762667V738.474667z m78.762666-78.762667h708.949334v-551.381333H157.525333z m562.474667-129.237333l-168.618667-168.618667-129.237333 129.152-28.288 27.093333-28.288-27.093333L247.466667 372.949333l56.618666-56.618666 89.856 89.856 129.237334-129.237334 28.288-27.093333 28.288 27.093333L776.533333 473.941333z m-50.474667-304l-39.381333-39.381334 39.381333-39.381333h157.525334v78.762667z"  horiz-adv-x="1024" />

    
    <glyph glyph-name="yinpin" unicode="&#59000;" d="M384 896a85.930667 85.930667 0 0 1-85.333333-85.333333v-512a85.930667 85.930667 0 0 1 85.333333-85.333334h256a85.930667 85.930667 0 0 1 85.333333 85.333334V810.666667a85.930667 85.930667 0 0 1-85.333333 85.333333z m0-85.333333h256v-512H384z m-256-341.333334v-170.666666a256.725333 256.725333 0 0 1 256-256h85.333333v-85.333334H298.666667v-85.333333h426.666666v85.333333h-170.666666v85.333334h85.333333a256.725333 256.725333 0 0 1 256 256v170.666666h-85.333333v-170.666666a170.154667 170.154667 0 0 0-170.666667-170.666667H384a170.154667 170.154667 0 0 0-170.666667 170.666667v170.666666z"  horiz-adv-x="1024" />

    
    <glyph glyph-name="quanping" unicode="&#59001;" d="M0 896v-384h85.333333V810.666667h298.666667V896z m640 0v-85.333333h298.666667v-298.666667h85.333333V896zM0 256v-384h384v85.333333H85.333333v298.666667z m938.666667 0v-298.666667h-298.666667v-85.333333h384v384z"  horiz-adv-x="1024" />

    
    <glyph glyph-name="chakan" unicode="&#59002;" d="M417.408-89.173333H0V896h1018.965333v-420.224h-77.610666V818.688H77.610667v-830.378667h339.797333zM540.16 64.682667a315.733333 315.733333 0 0 0-311.722667 318.549333 315.733333 315.733333 0 0 0 311.722667 318.592 315.733333 315.733333 0 0 0 311.722667-318.592 315.733333 315.733333 0 0 0-311.722667-318.549333z m0 557.781333a236.970667 236.970667 0 0 1-234.112-239.232 236.970667 236.970667 0 0 1 234.112-239.232 236.970667 236.970667 0 0 1 234.069333 239.232A236.970667 236.970667 0 0 1 540.16 622.506667zM763.434667 90.666667l56.149333 54.826666 204.501333-218.666666L967.936-128z"  horiz-adv-x="1024" />

    
    <glyph glyph-name="tuichudenglu" unicode="&#59003;" d="M469.348109 896v-511.963523h85.327254V896zM341.357228 866.647425a511.963523 511.963523 0 1 1 341.309015 0v-91.98278a426.636269 426.636269 0 1 0-341.309015 0z"  horiz-adv-x="1024" />

    
    <glyph glyph-name="caijian" unicode="&#59004;" d="M664.135212 895.287943a90.532292 90.532292 0 0 1-76.111973-64.848766L468.138347 410.41542l-150.730719-43.602263a159.306116 159.306116 0 1 1-19.710612-98.638388l140.790086 39.463888-39.463888-140.790086a156.91695 156.91695 0 1 1 98.979697 19.497294L699.375398 892.472142a89.209718 89.209718 0 0 1-35.240186 2.815801z m359.398693-326.974308l-393.273641-111.352159-29.565918-102.947418 360.806594 102.904754a90.020328 90.020328 0 0 1 62.032965 111.352159zM160.959978 413.273885a67.664569 67.664569 0 1 0-67.664569-67.792559A67.024614 67.024614 0 0 0 160.959978 413.273885z m315.711102-315.711102a67.664569 67.664569 0 1 0-67.664569-67.792559 67.024614 67.024614 0 0 0 67.664569 67.792559z"  horiz-adv-x="1027" />

    
    <glyph glyph-name="dayin" unicode="&#59005;" d="M796.458667 717.909333V896H227.541333v-178.090667H15.957333v-643.541333h211.584v-193.237333h568.917334v268.8H231.338667v57.216h565.589333v-132.949334h211.114667V717.738667z m-493.269334 102.4h417.578667v-102.4H303.189333z m0-745.941333h417.578667v-117.546667H303.189333z m629.162667 75.690667h-59.733333v132.949333h-716.8v-132.949333h-64V642.346667h840.533333zM163.072 618.325333h349.568v-75.690666H163.072z"  horiz-adv-x="1024" />

    
    <glyph glyph-name="huanfu" unicode="&#59006;" d="M797.824-22.826667H226.346667v406.357334a82.901333 82.901333 0 0 0-64 24.064l-162.133334 162.346666 216.576 216.362667a81.365333 81.365333 0 0 0 58.325334 24.234667h99.84l8.533333-22.912a138.026667 138.026667 0 0 1 128.853333-89.6 137.770667 137.770667 0 0 1 140.032 81.066666 46.634667 46.634667 0 0 0 40.192 31.530667h91.136l240.512-240.725333-162.133333-162.133334a83.072 83.072 0 0 0-64-24.064zM296.832 47.616h430.506667V525.909333l67.456-68.778666a13.098667 13.098667 0 0 1 17.066666 0l112.554667 112.682666-170.069333 170.197334h-43.093334a206.336 206.336 0 0 0-199.168-112.512 209.066667 209.066667 0 0 0-184.746666 112.469333H274.816a11.562667 11.562667 0 0 1-8.277333-3.413333L99.669333 569.813333l112.512-112.512a12.16 12.16 0 0 1 17.28 0l67.370667 67.456z m395.733333 692.394667z"  horiz-adv-x="1024" />

    
    <glyph glyph-name="jietu" unicode="&#59007;" d="M170.666667 896v-170.666667H0v-85.333333h170.666667v-597.333333h597.333333v-170.666667h85.333333v170.666667h170.666667v85.333333H256V896z m170.666666-170.666667v-85.333333h426.666667v-426.666667h85.333333V725.333333z"  horiz-adv-x="1024" />

    
    <glyph glyph-name="wenjianjia" unicode="&#59008;" d="M105.642667 896v-916.650667l28.842666-5.76 443.306667-92.373333 45.056-9.216v100.437333h221.866667V436.522667l63.061333 63.488 10.410667 11.562666V896z m337.066666-73.898667h401.749334V542.72l-63.488-63.488-10.410667-11.562667v-421.376h-147.712V375.466667l-10.410667 11.562666-63.488 63.36v345.173334z m-263.210666-10.410666l295.552-73.898667v-318.634667l10.410666-11.562666 63.488-63.488v-382.08l-369.408 77.354666z"  horiz-adv-x="1024" />

    
    <glyph glyph-name="weibo" unicode="&#59009;" d="M765.354667 810.325333a269.44 269.44 0 0 1-69.333334-5.333333 39.509333 39.509333 0 0 1 16-77.354667 192 192 0 0 0 224-248.021333 39.253333 39.253333 0 1 1 74.666667-24.021333 270.634667 270.634667 0 0 1-245.333333 354.688z m-353.365334-117.333333c-71.509333-7.68-171.349333-63.317333-260.010666-152.021333C55.466667 444.288 0 341.461333 0 252.970667c0-169.344 216.832-272 429.354667-272 278.528 0 464.042667 162.133333 464.042666 290.688a155.264 155.264 0 0 1-123.989333 139.989333c-14.506667 4.266667-24.832 6.314667-17.322667 25.344a109.056 109.056 0 0 1 1.322667 102.656c-33.152 47.488-125.184 45.013333-229.333333 1.322667 0 0-32.341333-15.317333-24.021334 10.666666a117.930667 117.930667 0 0 1-11.989333 120.021334 89.258667 89.258667 0 0 1-76.032 21.333333z m346.666667-21.333333a131.882667 131.882667 0 0 1-33.322667-2.688 35.285333 35.285333 0 0 1-26.666666-41.344 33.322667 33.322667 0 0 1 40.021333-25.344 66.901333 66.901333 0 0 0 62.677333-20.010667 63.658667 63.658667 0 0 0 13.354667-62.677333 33.749333 33.749333 0 1 1 64-21.333334 133.376 133.376 0 0 1-120.021333 173.354667z m-306.688-225.365334c141.653333-4.992 255.658667-75.989333 265.344-173.354666 11.008-111.36-117.162667-215.338667-286.677333-232.021334s-317.013333 60.672-328.021334 171.989334 118.485333 215.338667 288 232.021333a446.762667 446.762667 0 0 0 61.397334 1.365333zM385.28 363.605333a181.248 181.248 0 0 1-145.322667-94.677333A126.378667 126.378667 0 0 1 320 88.96a183.466667 183.466667 0 0 1 218.709333 93.354667 125.610667 125.610667 0 0 1-91.989333 176 177.578667 177.578667 0 0 1-61.354667 5.290666z m38.656-93.354666a15.402667 15.402667 0 0 0 6.656-1.322667 17.365333 17.365333 0 0 0 9.344-25.344 24.533333 24.533333 0 0 0-29.354667-10.666667 17.066667 17.066667 0 0 0-8.021333 25.344 26.154667 26.154667 0 0 0 21.461333 12.032z m-78.677333-24.021334a57.728 57.728 0 0 0 21.333333-4.010666 45.184 45.184 0 0 0 18.688-68.010667 64 64 0 0 0-77.354667-26.666667 45.269333 45.269333 0 0 0-17.322666 68.010667 65.322667 65.322667 0 0 0 54.741333 30.762667z"  horiz-adv-x="1024" />

    
    <glyph glyph-name="kaiguan-guan" unicode="&#59010;" d="M288.15232 682.666667a286.165333 286.165333 0 0 1-57.984-6.016c-9.386667-1.877333-18.986667-4.266667-27.989333-6.997334a290.346667 290.346667 0 0 1-179.2-162.986666 272.085333 272.085333 0 0 1-9.984-25.984 287.658667 287.658667 0 0 1 0-171.008v-0.981334a290.133333 290.133333 0 0 1 162.986666-179.2 272.085333 272.085333 0 0 1 25.984-9.984 283.136 283.136 0 0 1 86.016-12.8h448a288 288 0 0 1 0 576z m0-64a224 224 0 1 0-224-224c0 7.765333 0.256 15.488 0.981333 22.997333A223.488 223.488 0 0 0 288.15232 618.666667z m180.010667 0h267.989333a224 224 0 0 0 0-448h-267.989333a286.293333 286.293333 0 0 1 0 448z"  horiz-adv-x="1024" />

    
    <glyph glyph-name="weixin" unicode="&#59011;" d="M426.666667 853.333333C195.328 853.333333 0 694.997333 0 490.666667a321.792 321.792 0 0 1 64-186.666667l-16-123.989333-9.344-74.666667 68.010667 29.312L213.333333 178.645333a485.418667 485.418667 0 0 1 177.322667-48C421.845333 4.650667 553.685333-85.333333 704-85.333333a353.749333 353.749333 0 0 1 168.021333 43.989333l50.688-29.354667 73.344-40.021333-10.666666 82.645333-9.344 77.312A242.432 242.432 0 0 1 1024 187.989333a273.066667 273.066667 0 0 1-176 245.333334A293.461333 293.461333 0 0 1 853.333333 490.666667C853.333333 694.997333 658.005333 853.333333 426.666667 853.333333z m0-85.333333c192.853333 0 341.333333-128.341333 341.333333-277.333333a199.936 199.936 0 0 0-2.645333-33.322667 354.133333 354.133333 0 0 1-61.312 5.333333c-162.133333 0-302.506667-105.002667-318.677334-246.656a387.84 387.84 0 0 0-151.978666 46.677334l-18.645334 9.344-18.645333-8.021334-54.656-22.656 9.344 65.322667 1.322667 18.645333-10.666667 13.312A240 240 0 0 0 85.333333 490.666667C85.333333 639.658667 233.813333 768 426.666667 768zM280.021333 676.010667a59.946667 59.946667 0 0 1-59.989333-59.989334 60.032 60.032 0 1 1 120.021333 0 59.946667 59.946667 0 0 1-60.032 59.989334z m285.354667 0a61.098667 61.098667 0 0 1-61.312-59.989334A62.250667 62.250667 0 0 1 565.333333 554.666667a61.098667 61.098667 0 0 1 59.989334 61.312 59.946667 59.946667 0 0 1-59.989334 60.032z m138.666667-298.666667c134.016 0 234.666667-89.344 234.666666-189.354667A159.274667 159.274667 0 0 0 900.010667 85.333333l-11.989334-14.677333 2.688-17.322667 1.322667-8.021333-20.010667 10.666667-21.333333-14.677334A269.653333 269.653333 0 0 0 704 0c-134.016 0-234.666667 87.978667-234.666667 187.989333s100.650667 189.354667 234.666667 189.354667zM597.333333 322.645333a45.354667 45.354667 0 1 1 0-90.666666 45.354667 45.354667 0 0 1 0 90.666666z m214.656 0a45.354667 45.354667 0 1 1 45.354667-45.312 45.269333 45.269333 0 0 1-45.354667 45.312z"  horiz-adv-x="1024" />

    
    <glyph glyph-name="tianjiarenwu" unicode="&#59012;" d="M362.445169 895.999577a253.724304 253.724304 0 0 1-141.578162-464.400052A363.671503 363.671503 0 0 1 0 98.586376h72.480576A289.457144 289.457144 0 0 0 362.445169 388.550968a286.539314 286.539314 0 0 0 137.053412-35.098529 294.404768 294.404768 0 1 1 55.523335 52.013483 367.308218 367.308218 0 0 1-50.956298 26.049028A253.724304 253.724304 0 0 1 362.445169 895.999577z m0-72.480576A181.243728 181.243728 0 1 0 181.243728 642.275273a180.693992 180.693992 0 0 0 181.201441 181.243728zM724.932625 388.550968A217.484016 217.484016 0 1 0 507.448609 171.066952 216.976568 216.976568 0 0 0 724.932625 388.550968z m-36.240288-72.480576v-108.720864h-108.763152V134.826664h108.720865v-108.720865H761.172913V134.826664h108.720865v72.480576H761.172913v108.763152z"  horiz-adv-x="1030" />

    
    <glyph glyph-name="gerenzhongxin" unicode="&#59013;" d="M512 896a325.930667 325.930667 0 0 1-181.802667-596.352A466.816 466.816 0 0 1 46.549333-128h93.098667a371.2 371.2 0 0 0 177.450667 317.098667 210.56 210.56 0 0 1 389.802666 0A371.2 371.2 0 0 0 884.352-128h93.098667a466.816 466.816 0 0 1-283.648 427.648A325.930667 325.930667 0 0 1 512 896z m0-93.098667a232.746667 232.746667 0 1 0-232.746667-232.746666A232.021333 232.021333 0 0 0 512 802.901333z m0-558.549333a371.669333 371.669333 0 0 0 109.098667-16 115.712 115.712 0 0 0-218.197334 0A371.669333 371.669333 0 0 0 512 244.352z"  horiz-adv-x="1024" />

    
    <glyph glyph-name="QQ" unicode="&#59014;" d="M534.497283 810.719221c259.509411 0 272.685291-231.835798 286.969821-277.503655a117.985958 117.985958 0 0 0 25.328392-57.649807 96.196719 96.196719 0 0 0-9.679369-47.970438s82.935558-111.760461 82.935558-199.557023c0-54.792901-16.160708-83.106119-34.96512-83.106119s-46.648586 57.948289-46.648586 57.948289a441.285391 441.285391 0 0 0-64.941313-105.748166c-21.661318-13.17588 78.117194-27.630972 78.117194-70.783046s-79.268484-62.468171-144.081877-62.468171a713.203155 713.203155 0 0 0-168.216336 33.643267l-37.310341 1.151291s-28.824903-40.806853-147.74895-40.806853-170.561558 32.321415-170.561558 70.783047c0 51.808073 75.771972 58.801097 75.771972 58.801097s-48.311561 13.474363-89.118414 127.921168c0 0-28.313219-61.615363-68.224623-61.615362 0 0-16.842954 9.977851-16.842954 66.135244 0 116.109781 83.447242 172.736218 119.393091 207.530775a69.802318 69.802318 0 0 0-2.814266 34.112312 67.201254 67.201254 0 0 0 15.990146 33.643267 58.801097 58.801097 0 0 0 12.792117 45.454656A284.454039 284.454039 0 0 0 534.497283 810.719221m0 85.280779c-272.898493 0-369.606896-195.719388-386.748333-326.966507a142.930586 142.930586 0 0 1-14.668294-47.970438 150.136812 150.136812 0 0 1-15.3079-45.454655 129.626784 129.626784 0 0 1-1.662975-13.474363A317.926744 317.926744 0 0 1 0 219.766062c0-86.602631 31.809731-123.65713 58.630536-139.434073l19.998342-11.98195h25.584234a131.033917 131.033917 0 0 1-5.841733-39.655562c0-36.628095 18.505929-156.234387 255.842337-156.234387a332.595038 332.595038 0 0 1 174.569755 38.973316 719.812416 719.812416 0 0 1 178.53531-32.8331c139.434074 0 229.533217 57.948289 229.533217 147.74895a112.016303 112.016303 0 0 1-8.528078 42.640389c41.147976 18.63385 76.752701 66.77485 76.752702 158.920732a440.475224 440.475224 0 0 1-74.961805 213.884194 151.330742 151.330742 0 0 1 0.980729 45.284093 205.953081 205.953081 0 0 1-30.829002 82.125391l-0.980729 4.988925C854.811889 787.906613 731.879646 896 534.497283 896z"  horiz-adv-x="1024" />

    
    <glyph glyph-name="panduan" unicode="&#59015;" d="M477.046052 891.840332l-27.037845-25.849368-263.162694-264.351171-27.037845-25.849368 166.853638-166.853637 25.849368 27.037844 12.733678 12.733679 78.736581-78.73658L0-73.966756l54.033244-54.033244 444.150715 444.108269 77.548103-77.548103-12.733679-12.733679-27.377409-26.104041 166.853637-166.853638 25.849368 27.037845 290.200539 290.200539-27.037844 25.849368-112.777949 113.966424-25.849367 25.849368-27.037845-25.849368-10.568953-10.568953-210.148145 209.214342 37.606797 37.606798-27.037844 25.849368L502.89542 866.118301z m0-105.73198l59.933181-60.060518-210.317927-210.317927-59.933182 60.060518z m76.402072-151.573222l209.129451-209.129451-133.9583-133.958301-209.129451 209.129451z m299.623461-224.409866l59.933182-59.933181-210.360373-210.317928-59.933182 59.848291z"  horiz-adv-x="1024" />

    
    <glyph glyph-name="xiazai" unicode="&#59016;" d="M539.946667 256V844.501333h-85.333334V256l-170.666666 170.666667-64-64 277.333333-277.333334 277.333333 277.333334-64 64zM625.28 554.666667v-85.333334h213.333333v-426.666666h-682.666666V469.333333h213.333333V554.666667h-298.666667v-597.333334h853.333334V554.666667z"  horiz-adv-x="1024" />

    
    <glyph glyph-name="dingwei" unicode="&#59017;" d="M751.36 896a251.136 251.136 0 0 1-250.453333-250.453333 335.914667 335.914667 0 0 1 36.522666-130.432 1466.154667 1466.154667 0 0 1 73.045334-142.165334 2595.456 2595.456 0 0 1 106.965333-168.277333l33.92-49.578667 33.92 49.578667s53.802667 76.8 106.965333 168.277333a1466.154667 1466.154667 0 0 1 73.045334 142.165334 335.914667 335.914667 0 0 1 36.522666 130.432A251.136 251.136 0 0 1 751.36 896zM332.8 814.933333L0 672.938667V-128l335.232 144.810667 333.952-125.226667 332.8 142.165333v363.946667c-26.581333-51.2-56.106667-99.968-83.498667-143.488v-165.674667L709.632 0v67.84l-61.312 88.704a3859.712 3859.712 0 0 0-22.186667 32.597333V-4.266667l-250.453333 93.866667V710.784l45.653333-17.066667a327.808 327.808 0 0 0 22.186667 81.066667z m418.730667-2.602666a166.4 166.4 0 0 0 166.826666-166.784 311.168 311.168 0 0 0-28.714666-96.512 1447.210667 1447.210667 0 0 0-70.442667-134.4c-34.133333-58.709333-48.768-79.573333-67.84-108.288-19.072 28.714667-33.749333 49.578667-67.84 108.288a1447.210667 1447.210667 0 0 0-70.442667 134.357333A311.168 311.168 0 0 0 584.533333 645.546667a166.4 166.4 0 0 0 166.826667 166.954666zM292.181333 708.266667v-619.733334L83.498667 0V618.154667z m459.178667 0a62.634667 62.634667 0 1 1 62.634667-62.72A62.634667 62.634667 0 0 1 751.36 708.266667z"  horiz-adv-x="1024" />

    
    <glyph glyph-name="tupian" unicode="&#59018;" d="M0 768v-804.565333h1024V768z m73.130667-73.130667h877.738666v-508.586666l-193.152 194.304-26.282666 26.282666-165.717334-165.717333-210.304 212.565333-26.282666 26.282667-256-256z m731.434666-73.173333a73.130667 73.130667 0 1 1 73.130667-73.130667 73.088 73.088 0 0 1-73.130667 73.130667zM329.130667 375.978667l336-339.413334H73.130667v83.413334z m402.304-73.045334l219.434666-219.434666v-46.933334h-181.717333l-151.978667 153.130667z"  horiz-adv-x="1024" />

    
    <glyph glyph-name="guanliyuan" unicode="&#59019;" d="M401.408 896a265.984 265.984 0 0 1-148.864-485.930667 380.501333 380.501333 0 0 1-230.4-348.458666h75.861333a304.298667 304.298667 0 0 0 303.402667 303.402666A265.514667 265.514667 0 1 1 401.408 896z m0-75.861333a189.610667 189.610667 0 1 0-189.610667-189.610667 187.733333 187.733333 0 0 0 189.610667 189.610667z m307.2-417.194667v-79.616a193.109333 193.109333 0 0 1-64.426667-26.581333l-56.874666 56.874666-53.162667-53.034666 56.874667-56.874667a136.533333 136.533333 0 0 1-26.538667-68.266667h-87.210667v-75.861333h79.616a254.464 254.464 0 0 1 26.581334-68.266667L526.592-25.6l53.034667-53.034667 56.917333 56.874667a193.493333 193.493333 0 0 1 64.512-26.581333V-128h75.861333v79.616a193.109333 193.109333 0 0 1 64.426667 26.581333l56.874667-56.874666 53.12 53.077333-56.874667 56.874667a136.533333 136.533333 0 0 1 26.538667 68.266666h87.253333v75.861334h-79.658667a254.464 254.464 0 0 1-26.581333 68.266666l56.874667 56.874667-53.034667 53.034667-56.874667-56.874667a193.493333 193.493333 0 0 1-64.512 26.581333v79.658667z m34.133333-151.722667a113.792 113.792 0 1 0-113.792-113.792 111.744 111.744 0 0 0 113.792 113.834667z m0-75.861333a33.066667 33.066667 0 0 1-13.909333-3.242667 44.032 44.032 0 0 1-20.736-20.736 33.066667 33.066667 0 0 1-3.242667-13.909333 41.088 41.088 0 0 1 24.021334-34.688 33.066667 33.066667 0 0 1 13.909333-3.242667 37.930667 37.930667 0 0 1 0 75.861334z"  horiz-adv-x="1024" />

    
    <glyph glyph-name="zhankai" unicode="&#59020;" d="M0 725.333333v-78.762666h1024V725.333333z m0-157.525333v-78.762667h748.288V567.808z m1024 0l-196.906667-196.906667L1024 173.952zM0 410.24v-78.762667h748.288v78.762667z m0-157.525333v-78.762667h748.288v78.762667z m0-157.525334v-78.762666h1024v78.762666z"  horiz-adv-x="1024" />

    
    <glyph glyph-name="bobao" unicode="&#59021;" d="M327.381333-84.010667h-238.933333l-8.533333 28.117334-78.677334 273.749333L0 223.957333V580.821333h382.762667c144.725333 0 305.024 70.442667 387.669333 112.426667a1516.885333 1516.885333 0 0 1 190.805333 114.858667L1024 853.333333v-936.106666l-62.762667 45.226666a1677.397333 1677.397333 0 0 1-192 113.664c-185.173333 93.866667-312.362667 113.664-386.432 113.664H249.856l64-223.616 13.525333-50.090666z m-235.093333 273.749334l55.466667-195.541334h75.093333l-55.466667 195.541334zM945.237333 707.882667l-13.482666-9.216a936.277333 936.277333 0 0 0-125.610667-73.898667A967.424 967.424 0 0 0 393.856 502.613333v-234.666666a979.370667 979.370667 0 0 0 411.050667-120.96A970.325333 970.325333 0 0 0 932.266667 72.533333l12.8-8.789333zM78.762667 502.613333v-234.666666h236.330666v234.666666z"  horiz-adv-x="1024" />

    
    <glyph glyph-name="jiangxu-dao" unicode="&#59022;" d="M42.666667 853.333333v-85.333333h512V853.333333z m725.333333 0v-797.354666l-110.677333 110.677333L597.333333 106.666667l182.656-184.021334 30.677334-29.312 30.677333 29.312L1024 106.666667l-59.989333 59.989333L853.333333 55.978667V853.333333zM42.666667 682.666667v-85.333334h426.666666V682.666667z m0-170.666667v-85.333333h341.333333V512z m0-170.666667v-85.333333h256v85.333333z m0-170.666666v-85.333334h170.666666v85.333334z m0-170.666667v-85.333333h85.333333v85.333333z"  horiz-adv-x="1024" />

    
    <glyph glyph-name="renwubiaoqian" unicode="&#59023;" d="M379.260049 896A265.981229 265.981229 0 0 1 230.3976 410.074395 380.49737 380.49737 0 0 1 0 61.619358h75.860543a304.295497 304.295497 0 0 0 303.399506 303.399506A265.511901 265.511901 0 0 1 379.260049 896z m0-75.860543a189.608692 189.608692 0 1 0-189.608691-189.608692 187.731378 187.731378 0 0 0 189.608691 189.608692z m189.608692-455.120593a76.073874 76.073874 0 0 1-75.860543-75.860543v-166.867595l227.538963-227.538963a73.385902 73.385902 0 0 1 106.238893 0l136.531911 136.531911a73.385902 73.385902 0 0 1 0 106.238893l-227.538963 227.538964z m0-75.860543h136.531911l204.797867-204.797866-136.531911-136.531912-204.797867 204.797867z m75.860543-37.930271A37.930272 37.930272 0 1 1 682.659556 213.340444a37.930272 37.930272 0 0 1-37.930272 37.930272z"  horiz-adv-x="1024" />

    
    <glyph glyph-name="tongbu" unicode="&#59024;" d="M133.333111 46.635229V-85.332551h-85.333191v298.666169h298.666169v-85.333191H177.322371a427.519287 427.519287 0 0 1 340.0101-170.666383 422.399296 422.399296 0 0 1 396.03134 271.999547l78.634536-31.999947A507.476488 507.476488 0 0 0 517.332471-127.999147a511.316481 511.316481 0 0 0-383.99936 174.634376zM298.666169 256.000213v85.333191h469.332551v-85.333191z m0 170.666383V511.999787h469.332551v-85.333191zM42.666596 570.666356A507.732487 507.732487 0 0 0 517.332471 895.999147a509.311151 509.311151 0 0 0 383.99936-174.634376V853.332551h85.333191v-298.666169h-298.666169V639.999573h168.021054a423.72196 423.72196 0 0 1-338.687436 170.666383 422.399296 422.399296 0 0 1-395.988673-271.999547z"  horiz-adv-x="1024" />

    
    <glyph glyph-name="shanchu2" unicode="&#59025;" d="M426.662044 895.988907a86.825726 86.825726 0 0 1-61.311335-24.021073A86.825726 86.825726 0 0 1 341.329636 810.656498v-42.666205H42.666204v-85.332408h46.676828L170.664818-89.344419l4.010623-38.655581h674.638025l4.010623 38.655581L934.645875 682.657885H981.322702V767.990293h-298.663431V810.656498a86.825726 86.825726 0 0 1-23.978407 61.311336A86.825726 86.825726 0 0 1 597.326862 895.988907z m0-85.332409h170.664818v-42.666205h-170.664818zM175.998093 682.657885h671.99272l-75.98851-725.325476H251.986603zM341.329636 554.659271v-469.328249h85.332408V554.659271z m127.998613 0v-469.328249h85.332409V554.659271z m127.998613 0v-469.328249h85.332409V554.659271z"  horiz-adv-x="1024" />

    
    <glyph glyph-name="yulan" unicode="&#59026;" d="M512 715.605333c-276.138667 0-512-341.333333-512-341.333333s235.690667-341.333333 512-341.333333 512 341.333333 512 341.333333-235.690667 341.333333-512 341.333333z m0-597.333333c-159.317333 0-322.901333 156.245333-405.333333 256 82.218667 99.797333 245.376 256 405.333333 256s322.944-156.245333 405.333333-256c-82.176-99.797333-245.376-256-405.333333-256z m170.666667 256a170.666667 170.666667 0 1 1-170.666667-170.666667 170.666667 170.666667 0 0 1 170.666667 170.666667m-170.666667-85.333333a85.333333 85.333333 0 1 0 85.333333 85.333333 79.530667 79.530667 0 0 0-85.333333-85.333333z"  horiz-adv-x="1024" />

    
    <glyph glyph-name="sousuo" unicode="&#59027;" d="M1000.746667-58.197333l-256 256a463.061333 463.061333 0 0 1 93.098666 279.296 418.901333 418.901333 0 1 1-418.901333-418.901334 404.010667 404.010667 0 0 1 256 93.098667l256-279.253333zM418.944 151.253333a325.802667 325.802667 0 1 0 325.802667 325.802667 325.845333 325.845333 0 0 0-325.845334-325.802667z"  horiz-adv-x="1024" />

    
    <glyph glyph-name="shouqi" unicode="&#59028;" d="M0 725.333333v-75.861333h493.056V725.333333z m0-151.722666v-75.861334h758.528V573.610667z m834.389333 0v-379.264L1024 384zM0 421.930667v-75.861334h758.528v75.861334z m0-151.722667v-75.861333h758.528v75.861333z m0-151.722667V42.666667h493.056v75.861333z"  horiz-adv-x="1024" />

    
    <glyph glyph-name="qizhi" unicode="&#59029;" d="M0 896v-1024h85.333333V298.666667h341.333334v-128h512V768H512V896z m85.333333-85.333333h341.333334v-426.666667H85.333333z m426.666667-128h341.333333v-426.666667h-341.333333z"  horiz-adv-x="1024" />

    


  </font>
</defs>
</svg>
