<svg t="1609209729336" class="icon" viewBox="0 0 1024 1024" version="1.1" xmlns="http://www.w3.org/2000/svg" p-id="3675" width="200" height="200"><path d="M176 798c0 27.338 21.94 49.552 49.173 49.993L226 848h118c22.091 0 40 17.909 40 40s-17.909 40-40 40H196c-55.228 0-100-44.772-100-100V672c0-22.091 17.909-40 40-40s40 17.909 40 40v126z m712-166c22.091 0 40 17.909 40 40v156c0 55.228-44.772 100-100 100H680c-22.091 0-40-17.909-40-40s17.909-40 40-40h118c27.338 0 49.552-21.94 49.993-49.173L848 798V672c0-22.091 17.909-40 40-40zM828 96c55.228 0 100 44.772 100 100v156c0 22.091-17.909 40-40 40s-40-17.909-40-40V226c0-27.614-22.386-50-50-50H680c-22.091 0-40-17.909-40-40s17.909-40 40-40h148z m-484 0c22.091 0 40 17.909 40 40s-17.909 40-40 40H226c-27.338 0-49.552 21.94-49.993 49.173L176 226v126c0 22.091-17.909 40-40 40s-40-17.909-40-40V196c0-55.228 44.772-100 100-100h148z" p-id="3676" fill="#ffffff"></path></svg>