<svg t="1609208993220" class="icon" viewBox="0 0 1024 1024" version="1.1" xmlns="http://www.w3.org/2000/svg" p-id="4480" width="200" height="200"><path d="M259.94792909 133.921893h126.02603481c23.33815473 0 42.00867827 18.67052353 42.00867957 42.00867826v672.13885748c0 23.33815473-18.67052353 42.00867827-42.00867957 42.00867826H259.94792909c-23.33815473 0-42.00867827-18.67052353-42.00867956-42.00867826V175.93057126c0-23.33815473 18.67052353-42.00867827 42.00867956-42.00867826zM638.0260361 133.921893h126.02603481c23.33815473 0 42.00867827 18.67052353 42.00867956 42.00867826v672.13885748c0 23.33815473-18.67052353 42.00867827-42.00867956 42.00867826h-126.02603481c-23.33815473 0-42.00867827-18.67052353-42.00867957-42.00867826V175.93057126c0-23.33815473 18.67052353-42.00867827 42.00867957-42.00867826z" fill="#ffffff" p-id="4481"></path></svg>